<svg xmlns="http://www.w3.org/2000/svg" xmlns:xlink="http://www.w3.org/1999/xlink" contentStyleType="text/css" height="951px" preserveAspectRatio="none" style="width:2370px;height:951px;background:#FFFFFF;" version="1.1" viewBox="0 0 2370 951" width="2370px" zoomAndPan="magnify"><defs/><g><!--cluster Actions Visiteur--><g id="cluster_Actions Visiteur"><path d="M1280.5,719 L1406.7412,719 A3.75,3.75 0 0 1 1409.2412,721.5 L1416.2412,741.2969 L2134.5,741.2969 A2.5,2.5 0 0 1 2137,743.7969 L2137,937.5 A2.5,2.5 0 0 1 2134.5,940 L1280.5,940 A2.5,2.5 0 0 1 1278,937.5 L1278,721.5 A2.5,2.5 0 0 1 1280.5,719 " fill="#ADD8E6" style="stroke:#000000;stroke-width:1.5;"/><line style="stroke:#000000;stroke-width:1.5;" x1="1278" x2="1416.2412" y1="741.2969" y2="741.2969"/><text fill="#000000" font-family="sans-serif" font-size="14" font-weight="bold" lengthAdjust="spacing" textLength="125.2412" x="1282" y="733.9951">Actions Visiteur</text></g><!--cluster Actions Utilisateur--><g id="cluster_Actions Utilisateur"><path d="M905.5,128.5 L1053.2129,128.5 A3.75,3.75 0 0 1 1055.7129,131 L1062.7129,150.7969 L1644.5,150.7969 A2.5,2.5 0 0 1 1647,153.2969 L1647,649.5 A2.5,2.5 0 0 1 1644.5,652 L905.5,652 A2.5,2.5 0 0 1 903,649.5 L903,131 A2.5,2.5 0 0 1 905.5,128.5 " fill="#90EE90" style="stroke:#000000;stroke-width:1.5;"/><line style="stroke:#000000;stroke-width:1.5;" x1="903" x2="1062.7129" y1="150.7969" y2="150.7969"/><text fill="#000000" font-family="sans-serif" font-size="14" font-weight="bold" lengthAdjust="spacing" textLength="146.7129" x="907" y="143.4951">Actions Utilisateur</text></g><!--cluster Actions Administrateur--><g id="cluster_Actions Administrateur"><path d="M8.5,282.5 L192.3613,282.5 A3.75,3.75 0 0 1 194.8613,285 L201.8613,304.7969 L876.5,304.7969 A2.5,2.5 0 0 1 879,307.2969 L879,941.5 A2.5,2.5 0 0 1 876.5,944 L8.5,944 A2.5,2.5 0 0 1 6,941.5 L6,285 A2.5,2.5 0 0 1 8.5,282.5 " fill="#FFD700" style="stroke:#000000;stroke-width:1.5;"/><line style="stroke:#000000;stroke-width:1.5;" x1="6" x2="201.8613" y1="304.7969" y2="304.7969"/><text fill="#000000" font-family="sans-serif" font-size="14" font-weight="bold" lengthAdjust="spacing" textLength="182.8613" x="10" y="297.4951">Actions Administrateur</text></g><g id="elem_UC_AfficherPosts"><ellipse cx="2038.0782" cy="782.106" fill="#F1F1F1" rx="83.0782" ry="26.106" style="stroke:#181818;stroke-width:0.5;"/><text fill="#000000" font-family="sans-serif" font-size="14" lengthAdjust="spacing" textLength="100.96" x="1984.5983" y="777.7051">Afficher posts/</text><text fill="#000000" font-family="sans-serif" font-size="14" lengthAdjust="spacing" textLength="88.3408" x="1990.9078" y="794.002">informations</text></g><g id="elem_UC_Connexion"><ellipse cx="1850.2422" cy="781.8484" fill="#F1F1F1" rx="69.7422" ry="16.3484" style="stroke:#181818;stroke-width:0.5;"/><text fill="#000000" font-family="sans-serif" font-size="14" lengthAdjust="spacing" textLength="92.1279" x="1801.1783" y="785.596">Se connecter</text></g><g id="elem_UC_CreerCompte"><ellipse cx="1664.8044" cy="781.8609" fill="#F1F1F1" rx="79.8044" ry="18.3609" style="stroke:#181818;stroke-width:0.5;"/><text fill="#000000" font-family="sans-serif" font-size="14" lengthAdjust="spacing" textLength="118.0498" x="1604.039" y="785.2631">Créer un compte</text></g><g id="elem_UC_ResetPwd"><ellipse cx="1422.2331" cy="782.0466" fill="#F1F1F1" rx="128.2331" ry="28.0466" style="stroke:#181818;stroke-width:0.5;"/><text fill="#000000" font-family="sans-serif" font-size="14" lengthAdjust="spacing" textLength="224.8408" x="1309.8127" y="784.8933">Réinitialisation du mot de passe</text></g><g id="elem_UC_ValiderEmail"><ellipse cx="1664.7875" cy="907.3575" fill="#F1F1F1" rx="69.7875" ry="16.3575" style="stroke:#181818;stroke-width:0.5;"/><text fill="#000000" font-family="sans-serif" font-size="14" lengthAdjust="spacing" textLength="92.251" x="1615.662" y="911.1051">Valider email</text></g><g id="elem_UC_Contenu"><ellipse cx="1193.8101" cy="183.762" fill="#F1F1F1" rx="89.3101" ry="20.262" style="stroke:#181818;stroke-width:0.5;"/><text fill="#000000" font-family="sans-serif" font-size="14" lengthAdjust="spacing" textLength="140.1777" x="1123.7213" y="186.6087">Accéder au contenu</text></g><g id="elem_UC_Deconnexion"><ellipse cx="1394.9146" cy="184.1829" fill="#F1F1F1" rx="76.4146" ry="17.6829" style="stroke:#181818;stroke-width:0.5;"/><text fill="#000000" font-family="sans-serif" font-size="14" lengthAdjust="spacing" textLength="109.6279" x="1337.1007" y="187.9305">Se déconnecter</text></g><g id="elem_UC_Tracker"><ellipse cx="1118.9738" cy="341.0945" fill="#F1F1F1" rx="81.4738" ry="26.0945" style="stroke:#181818;stroke-width:0.5;"/><text fill="#000000" font-family="sans-serif" font-size="14" lengthAdjust="spacing" textLength="98.752" x="1066.5978" y="336.6936">Suivre tracker</text><text fill="#000000" font-family="sans-serif" font-size="14" lengthAdjust="spacing" textLength="70.3691" x="1080.7892" y="352.9905">d'émotion</text></g><g id="elem_UC_Rapport"><ellipse cx="1317.0528" cy="473.4106" fill="#F1F1F1" rx="135.0528" ry="29.4106" style="stroke:#181818;stroke-width:0.5;"/><text fill="#000000" font-family="sans-serif" font-size="14" lengthAdjust="spacing" textLength="124.0244" x="1255.0406" y="468.1088">Visualiser rapport</text><text fill="#000000" font-family="sans-serif" font-size="14" lengthAdjust="spacing" textLength="195.8291" x="1219.1382" y="484.4057">d'émotion (période donnée)</text></g><g id="elem_UC_ExporterRapport"><ellipse cx="1317.1962" cy="618.2392" fill="#F1F1F1" rx="79.1962" ry="18.2392" style="stroke:#181818;stroke-width:0.5;"/><text fill="#000000" font-family="sans-serif" font-size="14" lengthAdjust="spacing" textLength="116.5664" x="1256.9383" y="621.7091">Exporter rapport</text></g><g id="elem_UC_AjouterEmotion"><ellipse cx="1033.1072" cy="473.2652" fill="#F1F1F1" rx="114.1072" ry="26.2652" style="stroke:#181818;stroke-width:0.5;"/><text fill="#000000" font-family="sans-serif" font-size="14" lengthAdjust="spacing" textLength="143.6572" x="958.2786" y="468.8643">Ajouter une émotion</text><text fill="#000000" font-family="sans-serif" font-size="14" lengthAdjust="spacing" textLength="70.3281" x="994.9431" y="485.1612">au journal</text></g><g id="elem_UC_Profil"><ellipse cx="1316.2415" cy="340.9483" fill="#F1F1F1" rx="80.2415" ry="18.4483" style="stroke:#181818;stroke-width:0.5;"/><text fill="#000000" font-family="sans-serif" font-size="14" lengthAdjust="spacing" textLength="119.1094" x="1255.1114" y="344.302">Accéder au profil</text></g><g id="elem_UC_Notif"><ellipse cx="1515.8854" cy="340.8771" fill="#F1F1F1" rx="84.8854" ry="19.3771" style="stroke:#181818;stroke-width:0.5;"/><text fill="#000000" font-family="sans-serif" font-size="14" lengthAdjust="spacing" textLength="130.0605" x="1450.8552" y="343.7238">Gérer notifications</text></g><g id="elem_UC_ModifierProfil"><ellipse cx="1559.0434" cy="473.7087" fill="#F1F1F1" rx="71.5434" ry="16.7087" style="stroke:#181818;stroke-width:0.5;"/><text fill="#000000" font-family="sans-serif" font-size="14" lengthAdjust="spacing" textLength="96.9746" x="1507.5561" y="477.4562">Modifier profil</text></g><g id="elem_UC_AdminPage"><ellipse cx="757.7718" cy="340.8544" fill="#F1F1F1" rx="104.7718" ry="23.3544" style="stroke:#181818;stroke-width:0.5;"/><text fill="#000000" font-family="sans-serif" font-size="14" lengthAdjust="spacing" textLength="174.5215" x="670.511" y="343.701">Accéder à la page admin</text></g><g id="elem_UC_GererUsers"><ellipse cx="521.9316" cy="473.6863" fill="#F1F1F1" rx="81.4316" ry="18.6863" style="stroke:#181818;stroke-width:0.5;"/><text fill="#000000" font-family="sans-serif" font-size="14" lengthAdjust="spacing" textLength="121.9668" x="459.8086" y="476.9077">Gérer utilisateurs</text></g><g id="elem_UC_GererPosts"><ellipse cx="776.9621" cy="473.5924" fill="#F1F1F1" rx="65.9621" ry="15.5924" style="stroke:#181818;stroke-width:0.5;"/><text fill="#000000" font-family="sans-serif" font-size="14" lengthAdjust="spacing" textLength="81.5664" x="733.1789" y="477.34">Gérer posts</text></g><g id="elem_UC_GererEmotions"><ellipse cx="172.1538" cy="473.6308" fill="#F1F1F1" rx="76.1538" ry="17.6308" style="stroke:#181818;stroke-width:0.5;"/><text fill="#000000" font-family="sans-serif" font-size="14" lengthAdjust="spacing" textLength="108.9648" x="114.6714" y="477.3783">Gérer émotions</text></g><g id="elem_UC_ListeUsers"><ellipse cx="321.121" cy="618.057" fill="#F1F1F1" rx="75.621" ry="26.057" style="stroke:#181818;stroke-width:0.5;"/><text fill="#000000" font-family="sans-serif" font-size="14" lengthAdjust="spacing" textLength="90.6582" x="274.3003" y="613.2288">Voir liste des</text><text fill="#000000" font-family="sans-serif" font-size="14" lengthAdjust="spacing" textLength="77.9297" x="280.6646" y="629.5257">utilisateurs</text></g><g id="elem_UC_ModifierUser"><ellipse cx="587.0165" cy="618.1657" fill="#F1F1F1" rx="92.5165" ry="26.1657" style="stroke:#181818;stroke-width:0.5;"/><text fill="#000000" font-family="sans-serif" font-size="14" lengthAdjust="spacing" textLength="113.9482" x="527.0424" y="613.7648">Modifier compte</text><text fill="#000000" font-family="sans-serif" font-size="14" lengthAdjust="spacing" textLength="81.5596" x="543.2367" y="630.0617">(utilisateur)</text></g><g id="elem_UC_ListerPosts"><ellipse cx="789.1331" cy="617.8266" fill="#F1F1F1" rx="74.6331" ry="17.3266" style="stroke:#181818;stroke-width:0.5;"/><text fill="#000000" font-family="sans-serif" font-size="14" lengthAdjust="spacing" textLength="105.0684" x="733.5989" y="621.5742">Lister les posts</text></g><g id="elem_UC_CrudPost"><ellipse cx="739.7858" cy="781.9572" fill="#F1F1F1" rx="122.7858" ry="26.9572" style="stroke:#181818;stroke-width:0.5;"/><text fill="#000000" font-family="sans-serif" font-size="14" lengthAdjust="spacing" textLength="160.7881" x="656.3917" y="777.5563">Créer/éditer/supprimer</text><text fill="#000000" font-family="sans-serif" font-size="14" lengthAdjust="spacing" textLength="52.4316" x="710.57" y="793.8532">un post</text></g><g id="elem_UC_PublierPost"><ellipse cx="739.9753" cy="907.6951" fill="#F1F1F1" rx="66.4753" ry="15.6951" style="stroke:#181818;stroke-width:0.5;"/><text fill="#000000" font-family="sans-serif" font-size="14" lengthAdjust="spacing" textLength="83.0361" x="695.4572" y="911.4426">Publier post</text></g><g id="elem_UC_ListerEmotions"><ellipse cx="123.9312" cy="618.0862" fill="#F1F1F1" rx="85.9312" ry="19.5862" style="stroke:#181818;stroke-width:0.5;"/><text fill="#000000" font-family="sans-serif" font-size="14" lengthAdjust="spacing" textLength="132.4668" x="57.6978" y="620.9329">Lister les émotions</text></g><g id="elem_UC_AjouterEmotionAdmin"><ellipse cx="100.1922" cy="781.9384" fill="#F1F1F1" rx="77.6922" ry="17.9384" style="stroke:#181818;stroke-width:0.5;"/><text fill="#000000" font-family="sans-serif" font-size="14" lengthAdjust="spacing" textLength="112.8477" x="41.1893" y="785.5754">Ajouter émotion</text></g><g id="elem_UC_ModifierEmotion"><ellipse cx="293.0692" cy="781.9138" fill="#F1F1F1" rx="80.0692" ry="18.4138" style="stroke:#181818;stroke-width:0.5;"/><text fill="#000000" font-family="sans-serif" font-size="14" lengthAdjust="spacing" textLength="118.6924" x="232.0828" y="785.2866">Modifier émotion</text></g><g id="elem_UC_SupprimerEmotion"><ellipse cx="495.1546" cy="781.8309" fill="#F1F1F1" rx="87.1546" ry="19.8309" style="stroke:#181818;stroke-width:0.5;"/><text fill="#000000" font-family="sans-serif" font-size="14" lengthAdjust="spacing" textLength="135.2695" x="427.5199" y="784.6776">Supprimer émotion</text></g><g id="elem_UC_PublierEmotion"><ellipse cx="180.7806" cy="907.3561" fill="#F1F1F1" rx="89.7806" ry="20.3561" style="stroke:#181818;stroke-width:0.5;"/><text fill="#000000" font-family="sans-serif" font-size="14" lengthAdjust="spacing" textLength="141.2441" x="110.1585" y="910.2028">Publier une émotion</text></g><!--entity Visitor--><g id="elem_Visitor"><ellipse cx="1780.1294" cy="588.5" fill="#ADD8E6" rx="8" ry="8" style="stroke:#181818;stroke-width:0.5;"/><path d="M1780.1294,596.5 L1780.1294,623.5 M1767.1294,604.5 L1793.1294,604.5 M1780.1294,623.5 L1767.1294,638.5 M1780.1294,623.5 L1793.1294,638.5 " fill="none" style="stroke:#181818;stroke-width:0.5;"/><text fill="#000000" font-family="sans-serif" font-size="14" lengthAdjust="spacing" textLength="123.2588" x="1718.5" y="652.9951">Visiteur anonyme</text></g><!--entity User--><g id="elem_User"><ellipse cx="1274.9409" cy="14" fill="#90EE90" rx="8" ry="8" style="stroke:#181818;stroke-width:0.5;"/><path d="M1274.9409,22 L1274.9409,49 M1261.9409,30 L1287.9409,30 M1274.9409,49 L1261.9409,64 M1274.9409,49 L1287.9409,64 " fill="none" style="stroke:#181818;stroke-width:0.5;"/><text fill="#000000" font-family="sans-serif" font-size="14" lengthAdjust="spacing" textLength="140.8818" x="1204.5" y="78.4951">Utilisateur connecté</text></g><!--entity Admin--><g id="elem_Admin"><ellipse cx="891.8018" cy="14" fill="#FFD700" rx="8" ry="8" style="stroke:#181818;stroke-width:0.5;"/><path d="M891.8018,22 L891.8018,49 M878.8018,30 L904.8018,30 M891.8018,49 L878.8018,64 M891.8018,49 L904.8018,64 " fill="none" style="stroke:#181818;stroke-width:0.5;"/><text fill="#000000" font-family="sans-serif" font-size="14" lengthAdjust="spacing" textLength="104.6035" x="839.5" y="78.4951">Administrateur</text></g><g id="elem_GMN69"><path d="M2156,754.5 L2156,809.8984 L2363.6973,809.8984 L2363.6973,764.5 L2353.6973,754.5 L2156,754.5 " fill="#FEFFDD" style="stroke:#181818;stroke-width:0.5;"/><path d="M2353.6973,754.5 L2353.6973,764.5 L2363.6973,764.5 L2353.6973,754.5 " fill="#FEFFDD" style="stroke:#181818;stroke-width:1;"/><text fill="#000000" font-family="sans-serif" font-size="13" lengthAdjust="spacing" textLength="148.2178" x="2162" y="771.5669">Après authentification,</text><text fill="#000000" font-family="sans-serif" font-size="13" lengthAdjust="spacing" textLength="128.9971" x="2162" y="786.6997">le visiteur anonyme</text><text fill="#000000" font-family="sans-serif" font-size="13" lengthAdjust="spacing" textLength="186.6973" x="2162" y="801.8325">devient utilisateur connecté.</text></g><!--link Admin to User--><g id="link_Admin_User"><path d="M944.74,43.5 C1031.28,43.5 1099.82,43.5 1186.37,43.5 " fill="none" id="Admin-to-User" style="stroke:#181818;stroke-width:1;"/><polygon fill="none" points="1204.37,43.5,1186.37,37.5,1186.37,49.5,1204.37,43.5" style="stroke:#181818;stroke-width:1;"/></g><!--link UC_CreerCompte to UC_ValiderEmail--><g id="link_UC_CreerCompte_UC_ValiderEmail"><path d="M1665,800.69 C1665,824.84 1665,861.73 1665,884.79 " fill="none" id="UC_CreerCompte-to-UC_ValiderEmail" style="stroke:#181818;stroke-width:1;stroke-dasharray:7.0,7.0;"/><polygon fill="#181818" points="1665,890.79,1669,881.79,1665,885.79,1661,881.79,1665,890.79" style="stroke:#181818;stroke-width:1;"/><text fill="#000000" font-family="sans-serif" font-size="13" lengthAdjust="spacing" textLength="63.0068" x="1666" y="853.0669">«include»</text></g><!--link UC_Profil to UC_ModifierProfil--><g id="link_UC_Profil_UC_ModifierProfil"><path d="M1346.28,358.26 C1394.12,383.95 1481.1342,430.6809 1526.7842,455.2009 " fill="none" id="UC_Profil-to-UC_ModifierProfil" style="stroke:#181818;stroke-width:1;stroke-dasharray:7.0,7.0;"/><polygon fill="#181818" points="1532.07,458.04,1526.0341,450.2574,1527.6652,455.674,1522.2486,457.3051,1532.07,458.04" style="stroke:#181818;stroke-width:1;"/><text fill="#000000" font-family="sans-serif" font-size="13" lengthAdjust="spacing" textLength="61.1851" x="1445" y="410.0669">«extend»</text></g><!--link UC_ModifierProfil to UC_ResetPwd--><g id="link_UC_ModifierProfil_UC_ResetPwd"><path d="M1552.02,490.12 C1530.04,539.28 1464.5583,685.7822 1436.6283,748.2722 " fill="none" id="UC_ModifierProfil-to-UC_ResetPwd" style="stroke:#181818;stroke-width:1;stroke-dasharray:7.0,7.0;"/><polygon fill="#181818" points="1434.18,753.75,1441.5043,747.1656,1436.2202,749.1852,1434.2006,743.9012,1434.18,753.75" style="stroke:#181818;stroke-width:1;"/><text fill="#000000" font-family="sans-serif" font-size="13" lengthAdjust="spacing" textLength="61.1851" x="1511" y="622.5669">«extend»</text></g><!--link UC_Rapport to UC_ExporterRapport--><g id="link_UC_Rapport_UC_ExporterRapport"><path d="M1317,503.34 C1317,532.29 1317,569.93 1317,593.84 " fill="none" id="UC_Rapport-to-UC_ExporterRapport" style="stroke:#181818;stroke-width:1;stroke-dasharray:7.0,7.0;"/><polygon fill="#181818" points="1317,599.84,1321,590.84,1317,594.84,1313,590.84,1317,599.84" style="stroke:#181818;stroke-width:1;"/><text fill="#000000" font-family="sans-serif" font-size="13" lengthAdjust="spacing" textLength="61.1851" x="1318" y="546.0669">«extend»</text></g><!--link UC_AdminPage to UC_GererUsers--><g id="link_UC_AdminPage_UC_GererUsers"><path d="M720.08,362.97 C673.18,388.9 599.5505,429.6162 556.8605,453.2262 " fill="none" id="UC_AdminPage-to-UC_GererUsers" style="stroke:#181818;stroke-width:1;"/><polygon fill="#181818" points="551.61,456.13,561.4216,455.2746,555.9854,453.7101,557.5499,448.2739,551.61,456.13" style="stroke:#181818;stroke-width:1;"/></g><!--link UC_AdminPage to UC_GererPosts--><g id="link_UC_AdminPage_UC_GererPosts"><path d="M761.31,364.73 C765.2,391.46 770.6865,429.1025 773.9865,451.7925 " fill="none" id="UC_AdminPage-to-UC_GererPosts" style="stroke:#181818;stroke-width:1;"/><polygon fill="#181818" points="774.85,457.73,777.513,448.248,774.1304,452.7821,769.5963,449.3994,774.85,457.73" style="stroke:#181818;stroke-width:1;"/></g><!--link UC_AdminPage to UC_GererEmotions--><g id="link_UC_AdminPage_UC_GererEmotions"><path d="M685.56,358.13 C565.83,384.8 335.3165,436.1258 230.2865,459.5158 " fill="none" id="UC_AdminPage-to-UC_GererEmotions" style="stroke:#181818;stroke-width:1;"/><polygon fill="#181818" points="224.43,460.82,234.0843,462.768,229.3104,459.7331,232.3453,454.9593,224.43,460.82" style="stroke:#181818;stroke-width:1;"/></g><!--link UC_GererUsers to UC_ListeUsers--><g id="link_UC_GererUsers_UC_ListeUsers"><path d="M498.15,491.41 C462.07,516.99 398.4247,562.1099 357.9847,590.7799 " fill="none" id="UC_GererUsers-to-UC_ListeUsers" style="stroke:#181818;stroke-width:1;stroke-dasharray:7.0,7.0;"/><polygon fill="#181818" points="353.09,594.25,362.7455,592.308,357.1689,591.3582,358.1187,585.7817,353.09,594.25" style="stroke:#181818;stroke-width:1;"/><text fill="#000000" font-family="sans-serif" font-size="13" lengthAdjust="spacing" textLength="63.0068" x="435" y="546.0669">«include»</text></g><!--link UC_ListeUsers to UC_ModifierUser--><g id="link_UC_ListeUsers_UC_ModifierUser"><path d="M396.51,618 C426.93,618 456.3,618 488.26,618 " fill="none" id="UC_ListeUsers-to-UC_ModifierUser" style="stroke:#181818;stroke-width:1;stroke-dasharray:7.0,7.0;"/><polygon fill="#181818" points="494.26,618,485.26,614,489.26,618,485.26,622,494.26,618" style="stroke:#181818;stroke-width:1;"/><text fill="#000000" font-family="sans-serif" font-size="13" lengthAdjust="spacing" textLength="61.1851" x="415" y="611.0669">«extend»</text></g><!--link UC_GererPosts to UC_ListerPosts--><g id="link_UC_GererPosts_UC_ListerPosts"><path d="M778.24,489.21 C780.49,515.95 784.7373,566.3511 787.0973,594.4211 " fill="none" id="UC_GererPosts-to-UC_ListerPosts" style="stroke:#181818;stroke-width:1;stroke-dasharray:7.0,7.0;"/><polygon fill="#181818" points="787.6,600.4,790.8319,591.0965,787.1811,595.4176,782.86,591.7668,787.6,600.4" style="stroke:#181818;stroke-width:1;"/><text fill="#000000" font-family="sans-serif" font-size="13" lengthAdjust="spacing" textLength="63.0068" x="784" y="546.0669">«include»</text></g><!--link UC_ListerPosts to UC_CrudPost--><g id="link_UC_ListerPosts_UC_CrudPost"><path d="M783.94,635.73 C775.41,663.94 759.8271,715.447 749.6671,749.037 " fill="none" id="UC_ListerPosts-to-UC_CrudPost" style="stroke:#181818;stroke-width:1;stroke-dasharray:7.0,7.0;"/><polygon fill="#181818" points="747.93,754.78,754.3643,747.3235,749.3776,749.9941,746.707,745.0074,747.93,754.78" style="stroke:#181818;stroke-width:1;"/><text fill="#000000" font-family="sans-serif" font-size="13" lengthAdjust="spacing" textLength="61.1851" x="769" y="699.0669">«extend»</text></g><!--link UC_CrudPost to UC_PublierPost--><g id="link_UC_CrudPost_UC_PublierPost"><path d="M740,809.19 C740,834.4 740,865.6 740,885.92 " fill="none" id="UC_CrudPost-to-UC_PublierPost" style="stroke:#181818;stroke-width:1;stroke-dasharray:7.0,7.0;"/><polygon fill="#181818" points="740,891.92,744,882.92,740,886.92,736,882.92,740,891.92" style="stroke:#181818;stroke-width:1;"/><text fill="#000000" font-family="sans-serif" font-size="13" lengthAdjust="spacing" textLength="63.0068" x="741" y="853.0669">«include»</text></g><!--link UC_GererEmotions to UC_ListerEmotions--><g id="link_UC_GererEmotions_UC_ListerEmotions"><path d="M166.4,491.13 C157.4,517.85 141.6868,564.5144 132.2368,592.5444 " fill="none" id="UC_GererEmotions-to-UC_ListerEmotions" style="stroke:#181818;stroke-width:1;stroke-dasharray:7.0,7.0;"/><polygon fill="#181818" points="130.32,598.23,136.9856,590.9795,131.9174,593.492,129.4049,588.4238,130.32,598.23" style="stroke:#181818;stroke-width:1;"/><text fill="#000000" font-family="sans-serif" font-size="13" lengthAdjust="spacing" textLength="63.0068" x="152" y="546.0669">«include»</text></g><!--link UC_ListerEmotions to UC_AjouterEmotionAdmin--><g id="link_UC_ListerEmotions_UC_AjouterEmotionAdmin"><path d="M121.25,637.58 C116.57,669.17 108.0082,726.9346 103.4582,757.6846 " fill="none" id="UC_ListerEmotions-to-UC_AjouterEmotionAdmin" style="stroke:#181818;stroke-width:1;stroke-dasharray:7.0,7.0;"/><polygon fill="#181818" points="102.58,763.62,107.8543,755.3024,103.3119,758.6739,99.9404,754.1314,102.58,763.62" style="stroke:#181818;stroke-width:1;"/><text fill="#000000" font-family="sans-serif" font-size="13" lengthAdjust="spacing" textLength="61.1851" x="115" y="699.0669">«extend»</text></g><!--link UC_ListerEmotions to UC_ModifierEmotion--><g id="link_UC_ListerEmotions_UC_ModifierEmotion"><path d="M143.06,637.27 C175.95,668.8 238.5893,728.8373 270.6993,759.6273 " fill="none" id="UC_ListerEmotions-to-UC_ModifierEmotion" style="stroke:#181818;stroke-width:1;stroke-dasharray:7.0,7.0;"/><polygon fill="#181818" points="275.03,763.78,271.3024,754.6638,271.4211,760.3194,265.7655,760.4381,275.03,763.78" style="stroke:#181818;stroke-width:1;"/><text fill="#000000" font-family="sans-serif" font-size="13" lengthAdjust="spacing" textLength="61.1851" x="210" y="699.0669">«extend»</text></g><!--link UC_ListerEmotions to UC_SupprimerEmotion--><g id="link_UC_ListerEmotions_UC_SupprimerEmotion"><path d="M163.75,635.43 C183.03,643.21 206.59,652.42 228,660 C299.16,685.19 321.92,678.41 390,711 C419.84,725.29 446.2164,743.4614 466.7664,758.9314 " fill="none" id="UC_ListerEmotions-to-UC_SupprimerEmotion" style="stroke:#181818;stroke-width:1;stroke-dasharray:7.0,7.0;"/><polygon fill="#181818" points="471.56,762.54,466.7754,753.9314,467.5654,759.5329,461.9639,760.3228,471.56,762.54" style="stroke:#181818;stroke-width:1;"/><text fill="#000000" font-family="sans-serif" font-size="13" lengthAdjust="spacing" textLength="61.1851" x="372" y="699.0669">«extend»</text></g><!--link UC_AjouterEmotionAdmin to UC_PublierEmotion--><g id="link_UC_AjouterEmotionAdmin_UC_PublierEmotion"><path d="M108.32,799.95 C116.09,815.27 128.36,838.24 141,857 C148.04,867.45 152.8868,873.8108 160.3768,882.7508 " fill="none" id="UC_AjouterEmotionAdmin-to-UC_PublierEmotion" style="stroke:#181818;stroke-width:1;stroke-dasharray:7.0,7.0;"/><polygon fill="#181818" points="164.23,887.35,161.5163,877.8824,161.019,883.5173,155.384,883.02,164.23,887.35" style="stroke:#181818;stroke-width:1;"/><text fill="#000000" font-family="sans-serif" font-size="13" lengthAdjust="spacing" textLength="63.0068" x="142" y="853.0669">«include»</text></g><!--link UC_ModifierEmotion to UC_PublierEmotion--><g id="link_UC_ModifierEmotion_UC_PublierEmotion"><path d="M277.43,800.17 C256.75,822.97 224.3612,858.686 202.6812,882.586 " fill="none" id="UC_ModifierEmotion-to-UC_PublierEmotion" style="stroke:#181818;stroke-width:1;stroke-dasharray:7.0,7.0;"/><polygon fill="#181818" points="198.65,887.03,207.6595,883.0515,202.0094,883.3267,201.7342,877.6765,198.65,887.03" style="stroke:#181818;stroke-width:1;"/><text fill="#000000" font-family="sans-serif" font-size="13" lengthAdjust="spacing" textLength="63.0068" x="242" y="853.0669">«include»</text></g><!--link Visitor to UC_AfficherPosts--><g id="link_Visitor_UC_AfficherPosts"><path d="M1841.79,653.76 C1870.98,670.55 1906.11,691.28 1937,711 C1960.56,726.04 1981.5574,740.5369 2001.2374,754.5069 " fill="none" id="Visitor-to-UC_AfficherPosts" style="stroke:#181818;stroke-width:1;"/><polygon fill="#181818" points="2006.13,757.98,2001.1064,749.5086,2002.0528,755.0858,1996.4757,756.0321,2006.13,757.98" style="stroke:#181818;stroke-width:1;"/></g><!--link Visitor to UC_Connexion--><g id="link_Visitor_UC_Connexion"><path d="M1796.06,656.17 C1810.99,690.73 1830.13,735.0222 1840.92,759.9922 " fill="none" id="Visitor-to-UC_Connexion" style="stroke:#181818;stroke-width:1;"/><polygon fill="#181818" points="1843.3,765.5,1843.4018,755.6517,1841.3167,760.9102,1836.0581,758.825,1843.3,765.5" style="stroke:#181818;stroke-width:1;"/></g><!--link Visitor to UC_CreerCompte--><g id="link_Visitor_UC_CreerCompte"><path d="M1753.62,656.17 C1729.74,689.8 1699.1029,732.9573 1680.9529,758.5273 " fill="none" id="Visitor-to-UC_CreerCompte" style="stroke:#181818;stroke-width:1;"/><polygon fill="#181818" points="1677.48,763.42,1685.9512,758.3962,1680.3741,759.3427,1679.4276,753.7656,1677.48,763.42" style="stroke:#181818;stroke-width:1;"/></g><!--link Visitor to UC_ResetPwd--><g id="link_Visitor_UC_ResetPwd"><path d="M1718.04,645.16 C1675.62,663.25 1618.19,688.09 1568,711 C1536.04,725.59 1505.877,739.9985 1477.857,753.6085 " fill="none" id="Visitor-to-UC_ResetPwd" style="stroke:#181818;stroke-width:1;"/><polygon fill="#181818" points="1472.46,756.23,1482.3032,755.8958,1476.9575,754.0454,1478.8079,748.6998,1472.46,756.23" style="stroke:#181818;stroke-width:1;"/></g><!--link User to UC_Contenu--><g id="link_User_UC_Contenu"><path d="M1253.29,81.62 C1237.92,107.9 1220.9393,136.9309 1208.5393,158.1309 " fill="none" id="User-to-UC_Contenu" style="stroke:#181818;stroke-width:1;"/><polygon fill="#181818" points="1205.51,163.31,1213.5067,157.5608,1208.0344,158.9941,1206.6012,153.5218,1205.51,163.31" style="stroke:#181818;stroke-width:1;"/></g><!--link User to UC_Deconnexion--><g id="link_User_UC_Deconnexion"><path d="M1307.16,81.62 C1331.18,109.34 1358.9214,141.355 1376.9314,162.145 " fill="none" id="User-to-UC_Deconnexion" style="stroke:#181818;stroke-width:1;"/><polygon fill="#181818" points="1380.86,166.68,1377.9905,157.2584,1377.5862,162.9008,1371.9438,162.4966,1380.86,166.68" style="stroke:#181818;stroke-width:1;"/></g><!--link User to UC_AfficherPosts--><g id="link_User_UC_AfficherPosts"><path d="M1345.62,44.01 C1520.38,44.71 1959,58.81 1959,183 C1959,183 1959,183 1959,619 C1959,672.35 1990.3648,721.7573 2013.7748,751.9673 " fill="none" id="User-to-UC_AfficherPosts" style="stroke:#181818;stroke-width:1;"/><polygon fill="#181818" points="2017.45,756.71,2015.0991,747.1458,2014.3874,752.7578,2008.7755,752.0461,2017.45,756.71" style="stroke:#181818;stroke-width:1;"/></g><!--link UC_Contenu to UC_Profil--><g id="link_UC_Contenu_UC_Profil"><path d="M1209.2,204.32 C1233.09,234.67 1275.3597,288.3648 1298.3997,317.6448 " fill="none" id="UC_Contenu-to-UC_Profil" style="stroke:#181818;stroke-width:1;"/><polygon fill="#181818" points="1302.11,322.36,1299.688,312.8136,1299.018,318.4306,1293.401,317.7607,1302.11,322.36" style="stroke:#181818;stroke-width:1;"/></g><!--link UC_Contenu to UC_Notif--><g id="link_UC_Contenu_UC_Notif"><path d="M1241.48,201.43 C1286.81,217.78 1356.54,244.69 1414,274.5 C1441.46,288.75 1466.0905,304.8094 1486.2805,318.8194 " fill="none" id="UC_Contenu-to-UC_Notif" style="stroke:#181818;stroke-width:1;"/><polygon fill="#181818" points="1491.21,322.24,1486.0962,313.8228,1487.1021,319.3895,1481.5354,320.3954,1491.21,322.24" style="stroke:#181818;stroke-width:1;"/></g><!--link UC_Contenu to UC_Tracker--><g id="link_UC_Contenu_UC_Tracker"><path d="M1184.5,204.63 C1170.9,232.74 1148.5035,279.0291 1133.6335,309.7591 " fill="none" id="UC_Contenu-to-UC_Tracker" style="stroke:#181818;stroke-width:1;"/><polygon fill="#181818" points="1131.02,315.16,1138.5408,308.8009,1133.1979,310.6592,1131.3396,305.3163,1131.02,315.16" style="stroke:#181818;stroke-width:1;"/></g><!--link UC_Tracker to UC_AjouterEmotion--><g id="link_UC_Tracker_UC_AjouterEmotion"><path d="M1102.82,366.55 C1087.64,389.58 1068.3428,418.8809 1052.9928,442.1609 " fill="none" id="UC_Tracker-to-UC_AjouterEmotion" style="stroke:#181818;stroke-width:1;stroke-dasharray:7.0,7.0;"/><polygon fill="#181818" points="1049.69,447.17,1057.9837,441.8582,1052.4424,442.9957,1051.3048,437.4544,1049.69,447.17" style="stroke:#181818;stroke-width:1;"/><text fill="#000000" font-family="sans-serif" font-size="13" lengthAdjust="spacing" textLength="61.1851" x="1083" y="410.0669">«extend»</text></g><!--link UC_Tracker to UC_Rapport--><g id="link_UC_Tracker_UC_Rapport"><path d="M1153.49,364.73 C1187.5,387.15 1234.5003,418.128 1270.7003,441.988 " fill="none" id="UC_Tracker-to-UC_Rapport" style="stroke:#181818;stroke-width:1;stroke-dasharray:7.0,7.0;"/><polygon fill="#181818" points="1275.71,445.29,1270.3968,436.9973,1271.5353,442.5384,1265.9942,443.6768,1275.71,445.29" style="stroke:#181818;stroke-width:1;"/><text fill="#000000" font-family="sans-serif" font-size="13" lengthAdjust="spacing" textLength="61.1851" x="1225" y="410.0669">«extend»</text></g><!--link Admin to UC_AdminPage--><g id="link_Admin_UC_AdminPage"><path d="M875.16,81.63 C846.98,143.79 793.5476,261.6054 770.6376,312.1354 " fill="none" id="Admin-to-UC_AdminPage" style="stroke:#181818;stroke-width:1;"/><polygon fill="#181818" points="768.16,317.6,775.5194,311.0549,770.2247,313.0462,768.2334,307.7514,768.16,317.6" style="stroke:#181818;stroke-width:1;"/></g><!--link UC_Contenu to UC_AdminPage--><g id="link_UC_Contenu_UC_AdminPage"><path d="M1137.78,200.02 C1078.65,216.34 983.22,244.18 903,274.5 C867.6,287.88 833.9748,303.1155 805.3348,316.7855 " fill="none" id="UC_Contenu-to-UC_AdminPage" style="stroke:#181818;stroke-width:1;stroke-dasharray:7.0,7.0;"/><polygon fill="#181818" points="799.92,319.37,809.7652,319.1031,804.4323,317.2162,806.3192,311.8833,799.92,319.37" style="stroke:#181818;stroke-width:1;"/><text fill="#000000" font-family="sans-serif" font-size="13" lengthAdjust="spacing" textLength="61.1851" x="1015" y="247.5669">«extend»</text><text fill="#000000" font-family="sans-serif" font-size="13" lengthAdjust="spacing" textLength="55.25" x="1017.9675" y="262.6997">si admin</text></g><!--link UC_Connexion to GMN69--><g id="link_UC_Connexion_GMN69"><path d="M1861.65,765.43 C1879,742.36 1914.08,701.59 1955.5,685.5 C2023.44,659.11 2049.89,663.9 2119.5,685.5 C2162.88,698.96 2204.75,730.98 2231.33,754.45 " fill="none" id="UC_Connexion-GMN69" style="stroke:#181818;stroke-width:1;stroke-dasharray:7.0,7.0;"/></g><!--SRC=[ZLVDRjiu4BxhAGRfmGsm-JdjRXU50SDM0WEEOrXsJWOALg8JRcrAAuhP5BjzW7sBFTRFeHVha18bagRX1WWIpNn3pi_7uN00a_gmPPnLBEUGKG4ahQWiyUyhJI7DvKvzHIZDIxXuOe8fDH2UywzxUW54W1QYzjreClaz_jLWrnNRCK4qFCqvfsbL7xJ1Mb14VxYDum-t1ZtAzkY5g4fje65Q1E_kxYQ_tTv6qG2cF6D_IGhgTpTmBO2A2YId88hwa3AYjsvYGcpGbwZPuEhVeVP8xN1r-WUro_X- -RXUn0_nV0MJE87HU3Lzcgxg_v8pjb51qY_acMASgVAgJPgEj4qR_1C1I45J8XHiksNf2wQfo4KbRZQSyMrUxdL8eadY-9C1BHJ6jaweYPAM1ZnMWZSqju7ZiZxW9f8ZVbzKj0ENb9PZBRBXo_gWgM9bLy8-hrII2o94Px-aWbQBlxC8hGUGv59S5MMUKY6aWFppZZsJAcSbbYP7ggaI4KZHbwvawT7UJxXfXhxIFM4xiqyhZ9KCmQxdS7qzz47m1tpyo7YwanaT3gDlWSfONBamBFMAawRrGVb2fCfpHRcqigm-lM9aI4c_7XEQXYgIIFQAUK5MfrzekU7Pe3vWXX5b35UDoiaD4rBL15qgIL7aPMKRmdiy4YNBCQqPReaLl-pgrA3jjU8t9UbNCb0Z3vYC_inbfMb4mMowuPWSb9USTDLgSN63E9LH9Cgsh_12VzdOUmm6aHmNGVgx9sAkX0tfPWIPcNKGnTHcPTqfya89ETtj798zQ0jrx1mdZBXpfdFCSCn5Q9RHDsH2XYI30E2wjJC7nRLe0XXGdNB81dW-ssfqRMwRSyrNJ2_3NkO5r9VMEEYLpzqlT0pyXjpsuHCdeVvV7U52hK2KOLTozR50SQ22iZzeNG7lAMfKDnO10zqB7UHHvskHXeKkkYMUQFAB5r-57S6qdsVChBa3RS-SSuOz2r23lGLX6nwAOARKHn5qn6eQsuQ_jsmlVPurrz4P9mi_Thqp-cTqZaV7gMfw_mtM3o-YyaR8eYZPNlKSf9jQeByCPAQiRUE5n2RUbgGxgerCGyyvtnNeH0171MnqSS3AT1-_JxhTHXCnM17VpYW2RIenEJeowZG1AvChkprwEJDMpT7j3WtE5CEZKt4IO2fy4c3ptrdLD8cUkzuz2PxMRNfwdlCRcEELiq4hEhM3Qs785sYfdQg5Mlpp5hVSCJbmFUga9vtoxGBi2hWOjlKOzjDsFib2EG_vvUR7DlP2zHtx6SDlv-VcsJIU9u13yp9M8tEyNkBN2iQZ12Q3zMewcoQZrVHnVcOXyyveAUrElvwodtPzXJNPUgf-QDM4xbVI4vqjisStM-ww5FNM1j0E4CUAPd0vbfjXB-h_3pFGvS8nEdZlgzeCYFkE8dYbVyU6JUIRFsI8zd6rLQym0Q-Ck9U-UL2roUYkVZsCzJ0zm-0s-1fWdtSKA6-d5xmP2ia4NW1chCRH5KT8zJwHeHSSaA-4L_h2oCgSLUBIJg79KzSBxTWtNB3MwxFydJ-kOaZMIvYDOBKSpPExn-M3PgpYxnoUfibKiHef3eRE-7bcNHnWAPJi-GMdqQt_GXiLPVqT7-6oUg6y7tH_GHLcvzLxXgCqewyCaU4yNKSOivgOwGy0]--></g></svg>